<svg width="32" height="32" viewBox="0 0 32 32" fill="none"
     xmlns="http://www.w3.org/2000/svg">
  <path fill-rule="evenodd" clip-rule="evenodd"
        d="M16.112 4.47991L20.9168 14.7758L20.9271 14.7861C20.9675 14.876 20.9797 14.9759 20.9619 15.0728C20.9442 15.1697 20.8974 15.2589 20.8277 15.3285C20.7581 15.3982 20.6689 15.445 20.572 15.4627C20.4751 15.4805 20.3752 15.4683 20.2853 15.4279L15.6727 13.4511L11.0602 15.4279C10.9709 15.4663 10.8721 15.4771 10.7767 15.4587C10.6812 15.4404 10.5935 15.3938 10.5248 15.325C10.4543 15.2544 10.4072 15.1638 10.39 15.0656C10.3728 14.9673 10.3863 14.8662 10.4287 14.7758L15.2335 4.47991C15.2726 4.3965 15.3348 4.32597 15.4126 4.27657C15.4903 4.22716 15.5806 4.20093 15.6727 4.20093C15.7649 4.20093 15.8552 4.22716 15.933 4.27657C16.0107 4.32597 16.0729 4.3965 16.112 4.47991ZM12.5321 16.8787L11.0654 16.25C10.9756 16.2096 10.8756 16.1975 10.7787 16.2152C10.6818 16.233 10.5927 16.2798 10.523 16.3495C10.4534 16.4191 10.4066 16.5083 10.3888 16.6051C10.3711 16.7021 10.3832 16.802 10.4236 16.8918L10.4339 16.9021L15.2387 27.1981C15.2779 27.2815 15.34 27.3521 15.4178 27.4014C15.4956 27.4508 15.5858 27.4771 15.678 27.4771C15.7701 27.4771 15.8604 27.4508 15.9382 27.4014C16.016 27.3521 16.0781 27.2815 16.1173 27.1981L20.922 16.9021C20.9644 16.8119 20.9779 16.7107 20.9607 16.6124C20.9435 16.5142 20.8964 16.4236 20.8259 16.353C20.7573 16.2842 20.6695 16.2377 20.5741 16.2193C20.4786 16.201 20.3798 16.2116 20.2906 16.25L18.8862 16.852L17.7022 19.483C17.7085 19.5193 17.7034 19.5568 17.6877 19.5902L15.8988 23.4236C15.8842 23.4546 15.8611 23.4809 15.8321 23.4994C15.8032 23.5177 15.7696 23.5274 15.7352 23.5274C15.7009 23.5274 15.6673 23.5177 15.6384 23.4994C15.6094 23.4809 15.5863 23.4546 15.5717 23.4236L13.7828 19.5902L13.7789 19.5864C13.7639 19.5529 13.7594 19.5157 13.766 19.4796L13.7664 19.4772L12.5321 16.8787Z"
        fill="white"/>
</svg>
